<mxfile host="Electron" modified="2023-12-27T19:18:51.377Z" agent="Mozilla/5.0 (Windows NT 10.0; Win64; x64) AppleWebKit/537.36 (KHTML, like Gecko) draw.io/22.1.11 Chrome/114.0.5735.289 Electron/25.9.8 Safari/537.36" etag="vnONl97tSq5FLK8RHD32" version="22.1.11" type="device">
  <diagram name="Страница — 1" id="mR-SXOwZuPDMBiUPr4l0">
    <mxGraphModel dx="757" dy="578" grid="1" gridSize="10" guides="1" tooltips="1" connect="1" arrows="1" fold="1" page="1" pageScale="1" pageWidth="827" pageHeight="1169" math="0" shadow="0">
      <root>
        <mxCell id="0" />
        <mxCell id="1" parent="0" />
        <mxCell id="6YJe2-QJeffrfc2-Ua-x-1" value="DSL" style="shape=folder;fontStyle=1;tabWidth=110;tabHeight=30;tabPosition=left;html=1;boundedLbl=1;labelInHeader=1;container=1;collapsible=0;whiteSpace=wrap;" vertex="1" parent="1">
          <mxGeometry x="30" y="50" width="150" height="290" as="geometry" />
        </mxCell>
        <mxCell id="6YJe2-QJeffrfc2-Ua-x-2" value="" style="html=1;strokeColor=none;resizeWidth=1;resizeHeight=1;fillColor=none;part=1;connectable=0;allowArrows=0;deletable=0;whiteSpace=wrap;" vertex="1" parent="6YJe2-QJeffrfc2-Ua-x-1">
          <mxGeometry width="150" height="203.00000000000006" relative="1" as="geometry">
            <mxPoint y="30" as="offset" />
          </mxGeometry>
        </mxCell>
        <mxCell id="6YJe2-QJeffrfc2-Ua-x-7" value="«abstract class»&lt;br&gt;&lt;b&gt;Scenario&lt;/b&gt;" style="html=1;whiteSpace=wrap;" vertex="1" parent="6YJe2-QJeffrfc2-Ua-x-1">
          <mxGeometry x="20" y="225.56" width="120" height="53.7" as="geometry" />
        </mxCell>
        <mxCell id="6YJe2-QJeffrfc2-Ua-x-8" value="«open class»&lt;br&gt;&lt;b&gt;Operation&lt;/b&gt;" style="html=1;whiteSpace=wrap;" vertex="1" parent="6YJe2-QJeffrfc2-Ua-x-1">
          <mxGeometry x="20" y="161.11" width="120" height="53.7" as="geometry" />
        </mxCell>
        <mxCell id="6YJe2-QJeffrfc2-Ua-x-10" value="&lt;b&gt;TransitionCondition&lt;/b&gt;" style="html=1;whiteSpace=wrap;" vertex="1" parent="6YJe2-QJeffrfc2-Ua-x-1">
          <mxGeometry x="20" y="96.67" width="120" height="53.7" as="geometry" />
        </mxCell>
        <mxCell id="6YJe2-QJeffrfc2-Ua-x-3" value="ScenariosA" style="shape=folder;fontStyle=1;tabWidth=110;tabHeight=30;tabPosition=left;html=1;boundedLbl=1;labelInHeader=1;container=1;collapsible=0;whiteSpace=wrap;" vertex="1" parent="1">
          <mxGeometry x="300" y="50" width="150" height="140" as="geometry" />
        </mxCell>
        <mxCell id="6YJe2-QJeffrfc2-Ua-x-4" value="" style="html=1;strokeColor=none;resizeWidth=1;resizeHeight=1;fillColor=none;part=1;connectable=0;allowArrows=0;deletable=0;whiteSpace=wrap;" vertex="1" parent="6YJe2-QJeffrfc2-Ua-x-3">
          <mxGeometry width="150" height="98" relative="1" as="geometry">
            <mxPoint y="30" as="offset" />
          </mxGeometry>
        </mxCell>
        <mxCell id="6YJe2-QJeffrfc2-Ua-x-18" value="&lt;b&gt;ScenarioA&lt;br&gt;&lt;/b&gt;" style="html=1;whiteSpace=wrap;" vertex="1" parent="6YJe2-QJeffrfc2-Ua-x-3">
          <mxGeometry x="20" y="80" width="110" height="50" as="geometry" />
        </mxCell>
        <mxCell id="6YJe2-QJeffrfc2-Ua-x-5" value="Drive" style="shape=folder;fontStyle=1;tabWidth=110;tabHeight=30;tabPosition=left;html=1;boundedLbl=1;labelInHeader=1;container=1;collapsible=0;whiteSpace=wrap;" vertex="1" parent="1">
          <mxGeometry x="120" y="400" width="150" height="100" as="geometry" />
        </mxCell>
        <mxCell id="6YJe2-QJeffrfc2-Ua-x-6" value="" style="html=1;strokeColor=none;resizeWidth=1;resizeHeight=1;fillColor=none;part=1;connectable=0;allowArrows=0;deletable=0;whiteSpace=wrap;" vertex="1" parent="6YJe2-QJeffrfc2-Ua-x-5">
          <mxGeometry width="150" height="70" relative="1" as="geometry">
            <mxPoint y="30" as="offset" />
          </mxGeometry>
        </mxCell>
        <mxCell id="6YJe2-QJeffrfc2-Ua-x-11" value="ScenariosB" style="shape=folder;fontStyle=1;tabWidth=110;tabHeight=30;tabPosition=left;html=1;boundedLbl=1;labelInHeader=1;container=1;collapsible=0;whiteSpace=wrap;" vertex="1" parent="1">
          <mxGeometry x="300" y="200" width="150" height="140" as="geometry" />
        </mxCell>
        <mxCell id="6YJe2-QJeffrfc2-Ua-x-12" value="" style="html=1;strokeColor=none;resizeWidth=1;resizeHeight=1;fillColor=none;part=1;connectable=0;allowArrows=0;deletable=0;whiteSpace=wrap;" vertex="1" parent="6YJe2-QJeffrfc2-Ua-x-11">
          <mxGeometry width="150" height="98" relative="1" as="geometry">
            <mxPoint y="30" as="offset" />
          </mxGeometry>
        </mxCell>
        <mxCell id="6YJe2-QJeffrfc2-Ua-x-17" value="&lt;b&gt;ScenarioB&lt;/b&gt;" style="html=1;whiteSpace=wrap;" vertex="1" parent="6YJe2-QJeffrfc2-Ua-x-11">
          <mxGeometry x="20" y="80" width="110" height="50" as="geometry" />
        </mxCell>
        <mxCell id="6YJe2-QJeffrfc2-Ua-x-14" style="edgeStyle=orthogonalEdgeStyle;rounded=0;orthogonalLoop=1;jettySize=auto;html=1;exitX=0.39;exitY=0.005;exitDx=0;exitDy=0;exitPerimeter=0;entryX=0.46;entryY=1.01;entryDx=0;entryDy=0;entryPerimeter=0;dashed=1;endArrow=open;endFill=0;" edge="1" parent="1" source="6YJe2-QJeffrfc2-Ua-x-5">
          <mxGeometry relative="1" as="geometry">
            <mxPoint x="180" y="397.1" as="sourcePoint" />
            <mxPoint x="104" y="340.0000000000001" as="targetPoint" />
          </mxGeometry>
        </mxCell>
        <mxCell id="6YJe2-QJeffrfc2-Ua-x-15" style="edgeStyle=orthogonalEdgeStyle;rounded=0;orthogonalLoop=1;jettySize=auto;html=1;exitX=0;exitY=0;exitDx=55;exitDy=0;exitPerimeter=0;entryX=0;entryY=0;entryDx=55;entryDy=0;entryPerimeter=0;dashed=1;endArrow=open;endFill=0;" edge="1" parent="1" source="6YJe2-QJeffrfc2-Ua-x-3" target="6YJe2-QJeffrfc2-Ua-x-1">
          <mxGeometry relative="1" as="geometry" />
        </mxCell>
        <mxCell id="6YJe2-QJeffrfc2-Ua-x-16" style="edgeStyle=orthogonalEdgeStyle;rounded=0;orthogonalLoop=1;jettySize=auto;html=1;exitX=0;exitY=0;exitDx=150;exitDy=85;exitPerimeter=0;entryX=0;entryY=0;entryDx=55;entryDy=0;entryPerimeter=0;dashed=1;endArrow=open;endFill=0;" edge="1" parent="1" source="6YJe2-QJeffrfc2-Ua-x-11" target="6YJe2-QJeffrfc2-Ua-x-1">
          <mxGeometry relative="1" as="geometry">
            <Array as="points">
              <mxPoint x="470" y="285" />
              <mxPoint x="470" y="20" />
              <mxPoint x="85" y="20" />
            </Array>
          </mxGeometry>
        </mxCell>
        <mxCell id="6YJe2-QJeffrfc2-Ua-x-19" style="edgeStyle=orthogonalEdgeStyle;rounded=0;orthogonalLoop=1;jettySize=auto;html=1;exitX=0;exitY=0.5;exitDx=0;exitDy=0;dashed=1;endArrow=block;endFill=0;" edge="1" parent="1" source="6YJe2-QJeffrfc2-Ua-x-17" target="6YJe2-QJeffrfc2-Ua-x-7">
          <mxGeometry relative="1" as="geometry" />
        </mxCell>
        <mxCell id="6YJe2-QJeffrfc2-Ua-x-20" style="edgeStyle=orthogonalEdgeStyle;rounded=0;orthogonalLoop=1;jettySize=auto;html=1;exitX=0;exitY=0.5;exitDx=0;exitDy=0;entryX=1;entryY=0.5;entryDx=0;entryDy=0;dashed=1;endArrow=block;endFill=0;" edge="1" parent="1" source="6YJe2-QJeffrfc2-Ua-x-18" target="6YJe2-QJeffrfc2-Ua-x-7">
          <mxGeometry relative="1" as="geometry" />
        </mxCell>
        <mxCell id="6YJe2-QJeffrfc2-Ua-x-21" style="edgeStyle=orthogonalEdgeStyle;rounded=0;orthogonalLoop=1;jettySize=auto;html=1;exitX=0.464;exitY=-0.001;exitDx=0;exitDy=0;exitPerimeter=0;entryX=0.5;entryY=1;entryDx=0;entryDy=0;entryPerimeter=0;endArrow=diamondThin;endFill=0;" edge="1" parent="1" source="6YJe2-QJeffrfc2-Ua-x-5" target="6YJe2-QJeffrfc2-Ua-x-11">
          <mxGeometry relative="1" as="geometry" />
        </mxCell>
      </root>
    </mxGraphModel>
  </diagram>
</mxfile>
